<mxfile host="app.diagrams.net" modified="2022-12-15T05:43:53.792Z" agent="5.0 (X11)" version="20.6.0" etag="v5xyIANj5vebV4q9IJny" type="github">
  <diagram id="90htGS0TUS1ilbKzgD9f" name="Page-1">
    <mxGraphModel dx="1143" dy="660" grid="1" gridSize="10" guides="1" tooltips="1" connect="1" arrows="1" fold="1" page="1" pageScale="1" pageWidth="1169" pageHeight="827" math="0" shadow="0">
      <root>
        <mxCell id="0" />
        <mxCell id="1" parent="0" />
        <mxCell id="DMQq4pI1u5WjDBuoGsUP-45" value="" style="rounded=0;whiteSpace=wrap;html=1;" vertex="1" parent="1">
          <mxGeometry x="550" y="30" width="160" height="140" as="geometry" />
        </mxCell>
        <mxCell id="DMQq4pI1u5WjDBuoGsUP-35" value="" style="rounded=0;whiteSpace=wrap;html=1;" vertex="1" parent="1">
          <mxGeometry x="270" y="30" width="160" height="80" as="geometry" />
        </mxCell>
        <mxCell id="DMQq4pI1u5WjDBuoGsUP-6" value="Chain" style="swimlane;fontStyle=0;childLayout=stackLayout;horizontal=1;startSize=30;horizontalStack=0;resizeParent=1;resizeParentMax=0;resizeLast=0;collapsible=1;marginBottom=0;whiteSpace=wrap;html=1;" vertex="1" parent="1">
          <mxGeometry x="280" y="240" width="140" height="60" as="geometry">
            <mxRectangle x="280" y="40" width="120" height="30" as="alternateBounds" />
          </mxGeometry>
        </mxCell>
        <mxCell id="DMQq4pI1u5WjDBuoGsUP-3" value="ChainNumber" style="text;strokeColor=none;fillColor=none;align=left;verticalAlign=middle;spacingLeft=4;spacingRight=4;overflow=hidden;points=[[0,0.5],[1,0.5]];portConstraint=eastwest;rotatable=0;whiteSpace=wrap;html=1;" vertex="1" parent="DMQq4pI1u5WjDBuoGsUP-6">
          <mxGeometry y="30" width="140" height="30" as="geometry" />
        </mxCell>
        <mxCell id="DMQq4pI1u5WjDBuoGsUP-13" value="Wax" style="swimlane;fontStyle=0;childLayout=stackLayout;horizontal=1;startSize=30;horizontalStack=0;resizeParent=1;resizeParentMax=0;resizeLast=0;collapsible=1;marginBottom=0;whiteSpace=wrap;html=1;" vertex="1" parent="1">
          <mxGeometry x="40" y="40" width="140" height="60" as="geometry" />
        </mxCell>
        <mxCell id="DMQq4pI1u5WjDBuoGsUP-14" value="WaxNumber" style="text;strokeColor=none;fillColor=none;align=left;verticalAlign=middle;spacingLeft=4;spacingRight=4;overflow=hidden;points=[[0,0.5],[1,0.5]];portConstraint=eastwest;rotatable=0;whiteSpace=wrap;html=1;" vertex="1" parent="DMQq4pI1u5WjDBuoGsUP-13">
          <mxGeometry y="30" width="140" height="30" as="geometry" />
        </mxCell>
        <mxCell id="DMQq4pI1u5WjDBuoGsUP-23" value="Re-waxes" style="swimlane;fontStyle=0;childLayout=stackLayout;horizontal=1;startSize=30;horizontalStack=0;resizeParent=1;resizeParentMax=0;resizeLast=0;collapsible=1;marginBottom=0;whiteSpace=wrap;html=1;" vertex="1" parent="1">
          <mxGeometry x="280" y="40" width="140" height="60" as="geometry" />
        </mxCell>
        <mxCell id="DMQq4pI1u5WjDBuoGsUP-24" value="Re-waxNumber" style="text;strokeColor=none;fillColor=none;align=left;verticalAlign=middle;spacingLeft=4;spacingRight=4;overflow=hidden;points=[[0,0.5],[1,0.5]];portConstraint=eastwest;rotatable=0;whiteSpace=wrap;html=1;" vertex="1" parent="DMQq4pI1u5WjDBuoGsUP-23">
          <mxGeometry y="30" width="140" height="30" as="geometry" />
        </mxCell>
        <mxCell id="DMQq4pI1u5WjDBuoGsUP-25" value="" style="fontSize=12;html=1;endArrow=ERoneToMany;startArrow=ERmandOne;rounded=0;exitX=0.5;exitY=0;exitDx=0;exitDy=0;" edge="1" parent="1" source="DMQq4pI1u5WjDBuoGsUP-6" target="DMQq4pI1u5WjDBuoGsUP-23">
          <mxGeometry width="100" height="100" relative="1" as="geometry">
            <mxPoint x="350" y="319.9999999999998" as="sourcePoint" />
            <mxPoint x="350.28" y="143.51" as="targetPoint" />
          </mxGeometry>
        </mxCell>
        <mxCell id="DMQq4pI1u5WjDBuoGsUP-29" value="Ride" style="swimlane;fontStyle=0;childLayout=stackLayout;horizontal=1;startSize=30;horizontalStack=0;resizeParent=1;resizeParentMax=0;resizeLast=0;collapsible=1;marginBottom=0;whiteSpace=wrap;html=1;" vertex="1" parent="1">
          <mxGeometry x="560" y="240" width="140" height="180" as="geometry" />
        </mxCell>
        <mxCell id="DMQq4pI1u5WjDBuoGsUP-30" value="RideNumber" style="text;strokeColor=none;fillColor=none;align=left;verticalAlign=middle;spacingLeft=4;spacingRight=4;overflow=hidden;points=[[0,0.5],[1,0.5]];portConstraint=eastwest;rotatable=0;whiteSpace=wrap;html=1;" vertex="1" parent="DMQq4pI1u5WjDBuoGsUP-29">
          <mxGeometry y="30" width="140" height="30" as="geometry" />
        </mxCell>
        <mxCell id="DMQq4pI1u5WjDBuoGsUP-28" value="Weather" style="text;strokeColor=none;fillColor=none;align=left;verticalAlign=middle;spacingLeft=4;spacingRight=4;overflow=hidden;points=[[0,0.5],[1,0.5]];portConstraint=eastwest;rotatable=0;whiteSpace=wrap;html=1;" vertex="1" parent="DMQq4pI1u5WjDBuoGsUP-29">
          <mxGeometry y="60" width="140" height="30" as="geometry" />
        </mxCell>
        <mxCell id="DMQq4pI1u5WjDBuoGsUP-27" value="RoadType" style="text;strokeColor=none;fillColor=none;align=left;verticalAlign=middle;spacingLeft=4;spacingRight=4;overflow=hidden;points=[[0,0.5],[1,0.5]];portConstraint=eastwest;rotatable=0;whiteSpace=wrap;html=1;" vertex="1" parent="DMQq4pI1u5WjDBuoGsUP-29">
          <mxGeometry y="90" width="140" height="30" as="geometry" />
        </mxCell>
        <mxCell id="DMQq4pI1u5WjDBuoGsUP-31" value="Kms" style="text;strokeColor=none;fillColor=none;align=left;verticalAlign=middle;spacingLeft=4;spacingRight=4;overflow=hidden;points=[[0,0.5],[1,0.5]];portConstraint=eastwest;rotatable=0;whiteSpace=wrap;html=1;" vertex="1" parent="DMQq4pI1u5WjDBuoGsUP-29">
          <mxGeometry y="120" width="140" height="30" as="geometry" />
        </mxCell>
        <mxCell id="DMQq4pI1u5WjDBuoGsUP-32" value="Hours" style="text;strokeColor=none;fillColor=none;align=left;verticalAlign=middle;spacingLeft=4;spacingRight=4;overflow=hidden;points=[[0,0.5],[1,0.5]];portConstraint=eastwest;rotatable=0;whiteSpace=wrap;html=1;" vertex="1" parent="DMQq4pI1u5WjDBuoGsUP-29">
          <mxGeometry y="150" width="140" height="30" as="geometry" />
        </mxCell>
        <mxCell id="DMQq4pI1u5WjDBuoGsUP-36" value="" style="fontSize=12;html=1;endArrow=ERoneToMany;startArrow=ERmandOne;rounded=0;entryX=0;entryY=0.5;entryDx=0;entryDy=0;exitX=1;exitY=0.5;exitDx=0;exitDy=0;edgeStyle=entityRelationEdgeStyle;" edge="1" parent="1" source="DMQq4pI1u5WjDBuoGsUP-13" target="DMQq4pI1u5WjDBuoGsUP-35">
          <mxGeometry width="100" height="100" relative="1" as="geometry">
            <mxPoint x="180" y="220" as="sourcePoint" />
            <mxPoint x="80" y="250" as="targetPoint" />
          </mxGeometry>
        </mxCell>
        <mxCell id="DMQq4pI1u5WjDBuoGsUP-37" value="" style="fontSize=12;html=1;endArrow=ERzeroToMany;startArrow=ERmandOne;rounded=0;endFill=0;" edge="1" parent="1" source="DMQq4pI1u5WjDBuoGsUP-38" target="DMQq4pI1u5WjDBuoGsUP-29">
          <mxGeometry width="100" height="100" relative="1" as="geometry">
            <mxPoint x="700" y="220" as="sourcePoint" />
            <mxPoint x="790" y="240" as="targetPoint" />
          </mxGeometry>
        </mxCell>
        <mxCell id="DMQq4pI1u5WjDBuoGsUP-38" value="Re-waxFigures" style="swimlane;fontStyle=0;childLayout=stackLayout;horizontal=1;startSize=30;horizontalStack=0;resizeParent=1;resizeParentMax=0;resizeLast=0;collapsible=1;marginBottom=0;whiteSpace=wrap;html=1;" vertex="1" parent="1">
          <mxGeometry x="560" y="40" width="140" height="120" as="geometry" />
        </mxCell>
        <mxCell id="DMQq4pI1u5WjDBuoGsUP-42" value="NumberOfRides" style="text;strokeColor=none;fillColor=none;align=left;verticalAlign=middle;spacingLeft=4;spacingRight=4;overflow=hidden;points=[[0,0.5],[1,0.5]];portConstraint=eastwest;rotatable=0;whiteSpace=wrap;html=1;" vertex="1" parent="DMQq4pI1u5WjDBuoGsUP-38">
          <mxGeometry y="30" width="140" height="30" as="geometry" />
        </mxCell>
        <mxCell id="DMQq4pI1u5WjDBuoGsUP-46" value="TotalKms" style="text;strokeColor=none;fillColor=none;align=left;verticalAlign=middle;spacingLeft=4;spacingRight=4;overflow=hidden;points=[[0,0.5],[1,0.5]];portConstraint=eastwest;rotatable=0;whiteSpace=wrap;html=1;" vertex="1" parent="DMQq4pI1u5WjDBuoGsUP-38">
          <mxGeometry y="60" width="140" height="30" as="geometry" />
        </mxCell>
        <mxCell id="DMQq4pI1u5WjDBuoGsUP-43" value="TotalHours" style="text;strokeColor=none;fillColor=none;align=left;verticalAlign=middle;spacingLeft=4;spacingRight=4;overflow=hidden;points=[[0,0.5],[1,0.5]];portConstraint=eastwest;rotatable=0;whiteSpace=wrap;html=1;" vertex="1" parent="DMQq4pI1u5WjDBuoGsUP-38">
          <mxGeometry y="90" width="140" height="30" as="geometry" />
        </mxCell>
        <mxCell id="DMQq4pI1u5WjDBuoGsUP-44" value="" style="fontSize=12;html=1;endArrow=ERmandOne;startArrow=ERmandOne;rounded=0;edgeStyle=entityRelationEdgeStyle;endFill=0;" edge="1" parent="1" source="DMQq4pI1u5WjDBuoGsUP-23" target="DMQq4pI1u5WjDBuoGsUP-38">
          <mxGeometry width="100" height="100" relative="1" as="geometry">
            <mxPoint x="490" y="240" as="sourcePoint" />
            <mxPoint x="580" y="240" as="targetPoint" />
          </mxGeometry>
        </mxCell>
        <mxCell id="DMQq4pI1u5WjDBuoGsUP-47" value="&lt;u&gt;has&lt;/u&gt;" style="edgeLabel;html=1;align=center;verticalAlign=middle;resizable=0;points=[];" vertex="1" connectable="0" parent="DMQq4pI1u5WjDBuoGsUP-44">
          <mxGeometry x="-0.0064" relative="1" as="geometry">
            <mxPoint as="offset" />
          </mxGeometry>
        </mxCell>
      </root>
    </mxGraphModel>
  </diagram>
</mxfile>
